{"title":"Paper Man 2009.LIMITED.720p.BRRip.x264.Feel-Free","uid":6086075,"size":2153580535,"categoryP":"video","categoryS":"hd___movies","magnet":"?xt=urn:btih:35a1b32ec7e22de658ec2054dceb975fb8ef1529&amp;dn=Paper+Man+2009.LIMITED.720p.BRRip.x264.Feel-Free&amp;tr=udp%3A%2F%2Ftracker.openbittorrent.com%3A80&amp;tr=udp%3A%2F%2Fopen.demonii.com%3A1337&amp;tr=udp%3A%2F%2Ftracker.coppersurfer.tk%3A6969&amp;tr=udp%3A%2F%2Fexodus.desync.com%3A6969","seeders":0,"leechers":0,"uploader":"neon","files":-1,"time":1294332913,"description":"Genre:Comedy | Drama\nLanguage:English\n &lt;a href=&quot; http://www.imdb.com/title/tt0437405/&quot; rel=&quot;nofollow&quot; target=&quot;_NEW&quot;&gt; http://www.imdb.com/title/tt0437405/&lt;/a&gt;\nSource:BluRay.x264-DEPRAViTY\n\n\nFormat                           : Matroska\nFile size                        : 2.00 GiB\nDuration                         : 1h 50mn\nOverall bit rate                 : 2 585 Kbps\n\n\nVideo\nFormat settings, CABAC           : Yes\nFormat settings, ReFrames        : 4 frames\nFormat settings, GOP             : M=1, N=32\nCodec ID                         : V_MPEG4/ISO/AVC\nDuration                         : 1h 50mn\nBit rate                         : 2 200 Kbps\nWidth                            : 1 280 pixels\nHeight                           : 688 pixels\nDisplay aspect ratio             : 1.860\nFrame rate mode                  : Variable\nFrame rate                       : 23.976 fps\nColor space                      : YUV\nChroma subsampling               : 4:2:0\nBit depth                        : 8 bits\nScan type                        : Progressive\nBits/(Pixel*Frame)               : 0.104\nStream size                      : 1.66 GiB (83%)\nWriting library                  : x264\n\n\nAudio\nID                               : 2\nFormat                           : AC-3\nFormat/Info                      : Audio Coding 3\nMode extension                   : CM (complete main)\nCodec ID                         : A_AC3\nDuration                         : 1h 50mn\nBit rate mode                    : Constant\nBit rate                         : 384 Kbps\nChannel(s)                       : 6 channels\nChannel positions                : Front: L C R, Side: L R, LFE\nSampling rate                    : 48.0 KHz\nBit depth                        : 16 bits\nVideo delay                      : -1mn 5s\nStream size                      : 304 MiB (15%)\nLanguage                         : English\n\n\n   \nPlot:\n A washed-up writer forms an unlikely friendship with a teenager from Long Island\n\n &lt;a href=&quot;\nhttp://shareimage.org/images/zmfi8x1fefugy10dy00.png&quot; rel=&quot;nofollow&quot; target=&quot;_NEW&quot;&gt;\nhttp://shareimage.org/images/zmfi8x1fefugy10dy00.png&lt;/a&gt; &lt;a href=&quot;\nhttp://shareimage.org/images/9gser88m6h4nzveni5l.png&quot; rel=&quot;nofollow&quot; target=&quot;_NEW&quot;&gt;\nhttp://shareimage.org/images/9gser88m6h4nzveni5l.png&lt;/a&gt; &lt;a href=&quot;\nhttp://shareimage.org/images/5tkdanxouqcjt3r7ntrs.png&quot; rel=&quot;nofollow&quot; target=&quot;_NEW&quot;&gt;\nhttp://shareimage.org/images/5tkdanxouqcjt3r7ntrs.png&lt;/a&gt; &lt;a href=&quot;\nhttp://shareimage.org/images/r9o2c4nomxf1gkgi25h1.png&quot; rel=&quot;nofollow&quot; target=&quot;_NEW&quot;&gt;\nhttp://shareimage.org/images/r9o2c4nomxf1gkgi25h1.png&lt;/a&gt;","torrent":{"xt":"urn:btih:35a1b32ec7e22de658ec2054dceb975fb8ef1529","amp;dn":"Paper+Man+2009.LIMITED.720p.BRRip.x264.Feel-Free","amp;tr":["udp%3A%2F%2Ftracker.openbittorrent.com%3A80","udp%3A%2F%2Fopen.demonii.com%3A1337","udp%3A%2F%2Ftracker.coppersurfer.tk%3A6969","udp%3A%2F%2Fexodus.desync.com%3A6969"],"infoHash":"35a1b32ec7e22de658ec2054dceb975fb8ef1529","infoHashBuffer":{"type":"Buffer","data":[53,161,179,46,199,226,45,230,88,236,32,84,220,235,151,95,184,239,21,41]},"announce":[],"urlList":[]}}